<svg width="294" height="256" viewBox="0 0 294 256" fill="none" xmlns="http://www.w3.org/2000/svg">
<path d="M147.064 0C204.538 3.22152e-05 251.132 46.5912 251.133 104.064H251.147C252.321 137.246 233.16 214.087 147.133 256V208.125C147.111 208.125 147.087 208.129 147.064 208.129C89.5915 208.128 43 161.538 43 104.064C43.0004 46.5916 89.5917 0.000671707 147.064 0ZM101.182 143.516H143.849V131.879H101.182V143.516ZM159.364 143.516H198.151V131.879H159.364V143.516ZM101.182 116.363H198.151V104.728H101.182V116.363ZM101.182 89.2119H143.849V77.5762H101.182V89.2119ZM159.364 89.2119H198.151V77.5762H159.364V89.2119Z" fill="url(#paint0_linear_238_12804)"/>
<defs>
<linearGradient id="paint0_linear_238_12804" x1="199.164" y1="104.065" x2="199.164" y2="256" gradientUnits="userSpaceOnUse">
<stop stop-color="#6601EB"/>
<stop offset="1" stop-color="#5C00D4"/>
</linearGradient>
</defs>
</svg>
