<svg width="209" height="256" viewBox="0 0 209 256" fill="none" xmlns="http://www.w3.org/2000/svg">
<path d="M104.064 0C161.538 0 208.132 46.5912 208.133 104.064H208.148C209.321 137.246 190.16 214.087 104.133 256V208.125C104.11 208.125 104.087 208.129 104.064 208.129C46.5914 208.128 0 161.538 0 104.064C0.000351867 46.5916 46.5916 0.000671707 104.064 0Z" fill="url(#paint0_linear_238_12804)"/>
<rect x="58.1816" y="104.727" width="96.9697" height="11.6364" fill="white"/>
<rect x="58.1816" y="131.879" width="42.6667" height="11.6364" fill="white"/>
<rect x="58.1816" y="77.5758" width="42.6667" height="11.6364" fill="white"/>
<rect x="116.364" y="131.879" width="38.7879" height="11.6364" fill="white"/>
<rect x="116.364" y="77.5758" width="38.7879" height="11.6364" fill="white"/>
<defs>
<linearGradient id="paint0_linear_238_12804" x1="156.164" y1="104.065" x2="156.164" y2="256" gradientUnits="userSpaceOnUse">
<stop stop-color="#6601EB"/>
<stop offset="1" stop-color="#5C00D4"/>
</linearGradient>
</defs>
</svg>
